<?xml version="1.0" standalone="no"?>
<!DOCTYPE svg PUBLIC "-//W3C//DTD SVG 20010904//EN"
 "http://www.w3.org/TR/2001/REC-SVG-20010904/DTD/svg10.dtd">
<svg version="1.0" xmlns="http://www.w3.org/2000/svg"
 width="200.000000pt" height="200.000000pt" viewBox="0 0 200.000000 200.000000"
 preserveAspectRatio="xMidYMid meet">

<g transform="translate(0.000000,200.000000) scale(0.100000,-0.100000)"
fill="#000000" stroke="none">
<path d="M836 1885 c-352 -73 -614 -317 -708 -660 -31 -114 -31 -334 1 -450
86 -317 329 -560 646 -646 115 -32 335 -32 450 0 263 71 474 248 591 494 60
127 77 212 77 377 0 118 -4 160 -22 225 -86 317 -333 564 -646 646 -105 27
-294 34 -389 14z m362 -55 c312 -75 557 -320 632 -632 27 -113 27 -283 0 -396
-24 -100 -73 -210 -131 -293 l-43 -61 -26 84 c-15 47 -41 110 -60 142 -45 79
-138 177 -213 224 -67 42 -156 82 -181 82 -10 0 10 26 47 63 84 82 111 148
105 257 -11 179 -134 300 -313 308 -105 5 -176 -21 -243 -86 -66 -65 -95 -127
-100 -221 -6 -110 21 -176 105 -258 37 -37 57 -63 47 -63 -25 0 -114 -40 -181
-82 -75 -47 -168 -145 -213 -224 -19 -32 -45 -95 -60 -142 l-26 -84 -43 61
c-170 243 -201 578 -77 846 109 236 323 413 573 474 110 27 290 28 401 1z
m-67 -306 c124 -67 178 -220 124 -350 -7 -18 -30 -51 -52 -74 -108 -121 -298
-121 -406 0 -54 59 -70 102 -71 185 0 59 4 78 29 124 77 140 237 190 376 115z
m-6 -589 c221 -47 407 -229 461 -454 20 -86 20 -87 -62 -154 -233 -190 -598
-233 -881 -102 -79 36 -182 105 -222 148 -23 25 -23 28 -11 92 42 222 237 421
460 469 86 19 169 19 255 1z"/>
</g>
</svg>
